#!OML:ASF F:\VICON\USERDATA\INSTALL\rory3\rory3.ASF
:FULLY-SPECIFIED
:DEGREES
637
root 0.42509 15.8537 18.665 381.25 28.7569 -360.929
lowerback -14.8855 -3.96697 1.79615
upperback -12.4737 -5.17243 2.03224
thorax -4.94472 -2.56356 0.606786
lowerneck -9.26901 1.4714 -1.63723
upperneck 20.8783 1.84622 2.61129
head 7.92411 1.02995 1.31739
rclavicle 3.59303e-014 3.55825e-014
rhumerus -20.3973 -376.295 -385.718
rradius 18.6877
rwrist -0.859116
rhand 8.85307 8.00573
rfingers 7.12502
rthumb 34.0377 -18.7697
lclavicle 3.59303e-014 3.55825e-014
lhumerus 29.6186 -43.1839 26.0061
lradius 34.5549
lwrist -18.2008
lhand 16.9648 16.8055
lfingers 7.12502
lthumb 41.6978 41.496
rfemur -66.7389 -11.4096 395.889
rtibia 46.543
rfoot 164.775 149.501
rtoes 30.3906
lfemur -12.124 6.25915 -22.2616
ltibia 44.0137
lfoot -220.857 -146.465
ltoes -4.59109
638
root 0.443416 15.914 18.7919 381.841 28.4507 -360.555
lowerback -15.2205 -4.08344 1.38794
upperback -12.7335 -5.28046 2.00956
thorax -5.02057 -2.58955 0.786338
lowerneck -9.05469 1.60657 -1.73973
upperneck 20.5195 2.00858 2.8106
head 7.75838 1.11724 1.40723
rclavicle 7.16619e-014 1.98785e-014
rhumerus -20.1983 -378.195 -383.923
rradius 17.9555
rwrist 2.21413
rhand 8.61955 8.02504
rfingers 7.12502
rthumb 33.8159 -18.7994
lclavicle 7.16619e-014 1.98785e-014
lhumerus 30.5055 -41.6502 25.8635
lradius 33.786
lwrist -20.3155
lhand 16.3516 16.7366
lfingers 7.12502
lthumb 41.1223 41.614
rfemur -66.1864 -10.5046 394.956
rtibia 46.0595
rfoot 163.671 148.984
rtoes 31.6983
lfemur -12.1652 5.84555 -22.4646
ltibia 43.4157
lfoot -219.491 -145.061
ltoes -4.66754
639
root 0.459847 15.9685 18.9162 382.479 28.021 -360.002
lowerback -15.5659 -4.21662 0.737923
upperback -12.9472 -5.38545 1.97706
thorax -5.01785 -2.59685 1.08431
lowerneck -8.90753 1.74068 -1.79598
upperneck 20.1409 2.1875 2.88842
head 7.60044 1.20462 1.45044
rclavicle -7.4743e-014 -1.94809e-014
rhumerus -19.955 -379.603 -382.282
rradius 17.3983
rwrist 4.97017
rhand 8.26115 8.17687
rfingers 7.12502
rthumb 33.4753 -18.7218
lclavicle -7.4743e-014 -1.94809e-014
lhumerus 31.1378 -39.877 26.0411
lradius 33.2001
lwrist -22.2005
lhand 16.0581 16.9509
lfingers 7.12502
lthumb 40.8467 41.9158
rfemur -65.6679 -9.46955 393.779
rtibia 45.6537
rfoot 162.825 148.301
rtoes 32.118
lfemur -12.1214 5.47294 -22.848
ltibia 42.8227
lfoot -219.842 -145.33
ltoes -0.847389
640
root 0.480306 16.022 19.0387 383.158 27.6948 -359.5
lowerback -16.0696 -4.35314 0.206807
upperback -13.1083 -5.50451 1.91713
thorax -4.88873 -2.62088 1.27097
lowerneck -8.67223 1.88968 -1.65682
upperneck 19.5995 2.3631 2.92064
head 7.37743 1.30027 1.44123
rclavicle -1.92324e-014 2.34566e-014
rhumerus -19.7948 -379.629 -381.099
rradius 17.2384
rwrist 6.41167
rhand 7.87902 8.24898
rfingers 7.12502
rthumb 33.112 -18.7275
lclavicle -1.92324e-014 2.34566e-014
lhumerus 31.9867 -38.1208 26.0453
lradius 32.6039
lwrist -23.5539
lhand 15.6051 17.3443
lfingers 7.12502
lthumb 40.4209 42.442
rfemur -65.3262 -8.66546 392.814
rtibia 45.3153
rfoot 162.118 147.76
rtoes 32.305
lfemur -12.1343 5.0873 -23.1861
ltibia 42.2441
lfoot -220.214 -145.963
ltoes 4.50193
641
root 0.507932 16.0756 19.1543 383.735 27.6394 -359.032
lowerback -16.3855 -4.49869 -0.0909886
upperback -13.3338 -5.65584 1.79686
thorax -4.95847 -2.67851 1.2795
lowerneck -8.48472 1.98692 -1.35337
upperneck 19.2681 2.47913 2.7591
head 7.23989 1.36207 1.34017
rclavicle 3.50358e-014 -7.95139e-015
rhumerus -19.7058 -380.349 -379.72
rradius 16.9113
rwrist 8.79036
rhand 7.74634 8.37701
rfingers 7.12502
rthumb 32.9858 -18.6262
lclavicle 3.50358e-014 -7.95139e-015
lhumerus 33.0547 -36.8171 25.693
lradius 32.189
lwrist -24.0968
lhand 14.3569 17.4947
lfingers 7.12502
lthumb 39.246 42.9438
rfemur -64.9899 -8.31945 392.082
rtibia 45.0456
rfoot 161.588 147.346
rtoes 32.2107
lfemur -12.059 4.61254 -23.3978
ltibia 41.6994
lfoot -221.078 -147.363
ltoes 11.6699
642
root 0.541967 16.1294 19.2659 384.059 27.8307 -358.989
lowerback -16.7251 -4.63482 0.0752603
upperback -13.4501 -5.8461 1.84327
thorax -4.92153 -2.78352 1.19448
lowerneck -8.76704 2.15705 -1.39068
upperneck 19.2441 2.70651 2.83779
head 7.27542 1.47615 1.39524
rclavicle -1.00883e-014 1.23246e-014
rhumerus -19.3088 -381.414 -378.36
rradius 16.6417
rwrist 11.4805
rhand 7.65194 7.90543
rfingers 7.12502
rthumb 32.896 -19.1167
lclavicle -1.00883e-014 1.23246e-014
lhumerus 33.9692 -35.27 25.5713
lradius 31.8385
lwrist -24.4057
lhand 13.4186 17.7221
lfingers 7.12502
lthumb 38.3611 43.4221
rfemur -64.5958 -8.25721 391.961
rtibia 44.7974
rfoot 161.352 147.176
rtoes 31.7443
lfemur -12.0083 4.15391 -23.1127
ltibia 41.2571
lfoot -221.693 -148.392
ltoes 17.5815
643
root 0.565146 16.1795 19.3791 384.628 27.7615 -358.647
lowerback -17.1197 -4.85129 -0.230627
upperback -13.7302 -6.08145 1.89995
thorax -4.99154 -2.87392 1.37737
lowerneck -8.49096 2.38525 -1.36238
upperneck 19.0206 3.02183 2.80941
head 7.14716 1.62624 1.39981
rclavicle -1.17482e-013 -6.48038e-014
rhumerus -18.9412 -381.653 -377.248
rradius 16.6261
rwrist 13.4704
rhand 7.48569 7.01782
rfingers 7.12502
rthumb 32.7379 -20.0373
lclavicle -1.17482e-013 -6.48038e-014
lhumerus 34.2524 -33.4565 26.2435
lradius 31.3116
lwrist -25.155
lhand 12.6567 17.867
lfingers 7.12502
lthumb 37.6416 43.7629
rfemur -64.3323 -7.73064 391.259
rtibia 44.5734
rfoot 160.685 146.828
rtoes 31.9277
lfemur -12.2343 3.7777 -23.1702
ltibia 40.9447
lfoot -221.461 -147.88
ltoes 20.115
644
root 0.58068 16.2236 19.4842 385.361 27.4835 -357.966
lowerback -17.3085 -5.05487 -0.885567
upperback -14.1586 -6.2594 1.76835
thorax -5.32226 -2.91274 1.58598
lowerneck -7.90786 2.52838 -0.865355
upperneck 18.7225 3.20093 2.48859
head 6.95839 1.71783 1.21376
rclavicle 2.44505e-014 1.82882e-014
rhumerus -18.8996 -382.358 -376.008
rradius 16.4546
rwrist 15.6191
rhand 7.44185 6.32468
rfingers 7.12502
rthumb 32.6962 -20.7391
lclavicle 2.44505e-014 1.82882e-014
lhumerus 34.8169 -32.1417 26.5201
lradius 30.7485
lwrist -25.7456
lhand 11.5118 17.7171
lfingers 7.12502
lthumb 36.5588 43.8943
rfemur -64.1129 -6.98636 390.065
rtibia 44.3528
rfoot 159.21 146.521
rtoes 33.5977
lfemur -12.5479 3.26221 -23.6427
ltibia 40.7402
lfoot -222.366 -148.586
ltoes 24.5283
645
root 0.605285 16.2677 19.5807 385.693 27.5625 -357.988
lowerback -17.3985 -5.13178 -0.68377
upperback -14.5219 -6.37305 1.77005
thorax -5.70786 -2.97773 1.47995
lowerneck -7.47643 2.60528 -0.625981
upperneck 18.4931 3.29283 2.37399
head 6.81322 1.76789 1.13354
rclavicle -4.12975e-014 -4.96962e-015
rhumerus -18.9457 -385.181 -374.111
rradius 15.8059
rwrist 19.8126
rhand 7.66089 7.63117
rfingers 7.12502
rthumb 32.9045 -19.3891
lclavicle -4.12975e-014 -4.96962e-015
lhumerus 35.5359 -30.5874 27.1435
lradius 30.3585
lwrist -25.6708
lhand 11.8574 19.0813
lfingers 7.12502
lthumb 36.8859 45.1751
rfemur -63.7921 -6.77036 389.97
rtibia 44.0821
rfoot 158.385 146.502
rtoes 34.3796
lfemur -12.8755 2.80866 -23.3531
ltibia 40.6064
lfoot -222.865 -149.11
ltoes 28.3074
646
root 0.637708 16.3128 19.6763 385.956 27.7533 -358.11
lowerback -17.4174 -5.13827 -0.25417
upperback -15.1078 -6.41215 1.77773
thorax -6.41642 -3.0184 1.28848
lowerneck -6.54478 2.66324 -0.814462
upperneck 18.375 3.35803 2.6131
head 6.60162 1.80564 1.22777
rclavicle -4.20927e-014 -2.26615e-014
rhumerus -19.026 -384.364 -372.844
rradius 15.8553
rwrist 20.2908
rhand 7.72977 6.895
rfingers 7.12502
rthumb 32.9701 -20.1115
lclavicle -4.20927e-014 -2.26615e-014
lhumerus 35.9312 -29.161 28.3934
lradius 29.601
lwrist -26.7752
lhand 11.2849 18.6955
lfingers 7.12502
lthumb 36.3439 44.9268
rfemur -63.4634 -6.76408 390.068
rtibia 43.7526
rfoot 158.321 146.41
rtoes 33.967
lfemur -13.1855 2.34717 -22.9481
ltibia 40.4969
lfoot -223.165 -149.664
ltoes 30.5256
647
root 0.665033 16.3533 19.7759 386.31 27.7967 -358.071
lowerback -17.7408 -5.17409 -0.195865
upperback -15.21 -6.45576 1.82791
thorax -6.36778 -3.0416 1.28328
lowerneck -6.88103 2.7303 -1.11912
upperneck 18.2544 3.46008 2.79586
head 6.61043 1.84966 1.34815
rclavicle 1.64991e-014 5.56597e-015
rhumerus -18.7685 -385.382 -371.453
rradius 15.8085
rwrist 22.0594
rhand 8.59504 6.00856
rfingers 7.12502
rthumb 33.7926 -20.821
lclavicle 1.64991e-014 5.56597e-015
lhumerus 37.0072 -27.3828 28.9149
lradius 29.1918
lwrist -27.0433
lhand 10.6657 18.7667
lfingers 7.12502
lthumb 35.7575 45.1425
rfemur -63.1077 -6.43201 389.792
rtibia 43.3392
rfoot 157.929 146.119
rtoes 33.4976
lfemur -13.4121 1.76116 -22.7158
ltibia 40.3653
lfoot -224.672 -152.579
ltoes 34.8634
648
root 0.686717 16.3921 19.8707 386.547 27.7919 -358.128
lowerback -17.8532 -5.22894 -0.152822
upperback -15.4325 -6.52202 1.92662
thorax -6.55932 -3.0692 1.36211
lowerneck -6.71497 2.83343 -1.2218
upperneck 17.9962 3.60778 2.84418
head 6.49255 1.91751 1.38378
rclavicle -6.55989e-014 -3.85642e-014
rhumerus -18.2999 -382.09 -371.363
rradius 16.4757
rwrist 18.6602
rhand 8.30234 3.57451
rfingers 7.12502
rthumb 33.5144 -23.3157
lclavicle -6.55989e-014 -3.85642e-014
lhumerus 37.4703 -25.0325 30.609
lradius 28.684
lwrist -28.3019
lhand 9.99949 18.6861
lfingers 7.12502
lthumb 35.1259 45.2127
rfemur -62.629 -6.06283 389.705
rtibia 42.8584
rfoot 157.777 145.675
rtoes 32.68
lfemur -13.602 1.42292 -22.3966
ltibia 40.1896
lfoot -225.166 -153.927
ltoes 36.8711
649
root 0.709651 16.4341 19.9626 386.757 27.7564 -357.981
lowerback -17.739 -5.29037 -0.188631
upperback -15.7876 -6.59094 1.89315
thorax -7.03127 -3.09464 1.37424
lowerneck -6.42102 2.9192 -1.29252
upperneck 18.054 3.70092 3.03396
head 6.45165 1.97317 1.4578
rclavicle -1.71949e-014 3.57812e-015
rhumerus -18.1464 -380.273 -370.679
rradius 16.8482
rwrist 17.4199
rhand 8.41937 3.10831
rfingers 7.12502
rthumb 33.6257 -23.7578
lclavicle -1.71949e-014 3.57812e-015
lhumerus 37.8967 -22.9123 32.3493
lradius 28.0568
lwrist -29.6473
lhand 9.53014 18.3641
lfingers 7.12502
lthumb 34.6806 44.9942
rfemur -62.0208 -5.72124 389.327
rtibia 42.3352
rfoot 157.335 145.359
rtoes 32.2722
lfemur -13.7306 1.38613 -22.2619
ltibia 39.9987
lfoot -224.761 -153.699
ltoes 37.2708
650
root 0.727084 16.4773 20.0607 387.036 27.6767 -357.963
lowerback -17.8827 -5.32106 -0.177553
upperback -16.0364 -6.62368 1.88002
thorax -7.25173 -3.10807 1.35603
lowerneck -6.65354 2.9274 -1.30624
upperneck 18.345 3.69692 3.13054
head 6.58298 1.97948 1.5005
rclavicle -4.48259e-014 -4.81059e-014
rhumerus -17.8809 -380.076 -369.857
rradius 16.9671
rwrist 17.2731
rhand 8.64515 2.92795
rfingers 7.12502
rthumb 33.8402 -23.8911
lclavicle -4.48259e-014 -4.81059e-014
lhumerus 38.9876 -22.3238 31.7886
lradius 28.1054
lwrist -28.4713
lhand 9.48472 18.7059
lfingers 7.12502
lthumb 34.6375 45.3459
rfemur -61.4813 -4.62662 388.563
rtibia 41.7936
rfoot 156.347 144.5
rtoes 32.6528
lfemur -13.9772 1.35921 -21.9914
ltibia 39.8268
lfoot -224.867 -154.4
ltoes 38.9907
